<svg width="154" height="42" viewBox="0 0 154 42" fill="none" xmlns="http://www.w3.org/2000/svg">
<g clip-path="url(#clip0_51112_65093)">
<path d="M21 4.2C21.1774 4.2 21.2659 4.2 21.3408 4.20588C22.2768 4.27957 23.0204 5.02312 23.0941 5.9593C23.1 6.03408 23.1 6.12272 23.1 6.3V8.93714C23.1 9.01486 23.1 9.05371 23.0985 9.09119C23.0807 9.5454 22.9013 9.97832 22.5928 10.3121C22.5674 10.3397 22.5399 10.3671 22.4849 10.4221C22.3597 10.5474 22.2968 10.6101 22.2398 10.6588C21.5258 11.2687 20.4742 11.2687 19.7602 10.6588C19.7032 10.6101 19.6403 10.5474 19.5151 10.4221C19.4601 10.3671 19.4326 10.3397 19.4072 10.3121C19.0987 9.97832 18.9193 9.5454 18.9015 9.09119C18.9 9.05371 18.9 9.01486 18.9 8.93716V6.3C18.9 6.12272 18.9 6.03408 18.9059 5.9593C18.9796 5.02312 19.7232 4.27957 20.6592 4.20588C20.7341 4.2 20.8226 4.2 21 4.2ZM35.7 18.9C35.8774 18.9 35.9659 18.9 36.0408 18.9059C36.9768 18.9796 37.7204 19.7232 37.7941 20.6592C37.8 20.7341 37.8 20.8226 37.8 21C37.8 21.1774 37.8 21.2659 37.7941 21.3408C37.7204 22.2768 36.9768 23.0204 36.0408 23.0941C35.9659 23.1 35.8774 23.1 35.7 23.1H33.0628C32.9851 23.1 32.9463 23.1 32.9089 23.0985C32.4545 23.0807 32.0218 22.9013 31.6879 22.5928C31.6604 22.5674 31.6329 22.5399 31.5779 22.4849C31.4527 22.3597 31.3898 22.2968 31.3412 22.2398C30.7312 21.5258 30.7312 20.4742 31.3412 19.7602C31.3898 19.7032 31.4527 19.6403 31.5779 19.5151C31.6329 19.4601 31.6604 19.4326 31.6879 19.4072C32.0218 19.0987 32.4545 18.9193 32.9089 18.9015C32.9463 18.9 32.9851 18.9 33.0628 18.9H35.7ZM8.93714 18.9C9.01486 18.9 9.05371 18.9 9.09119 18.9015C9.5454 18.9193 9.97832 19.0987 10.3121 19.4072C10.3397 19.4326 10.3671 19.4601 10.4221 19.5151C10.5474 19.6403 10.6101 19.7032 10.6588 19.7602C11.2687 20.4742 11.2687 21.5258 10.6588 22.2398C10.6101 22.2968 10.5474 22.3597 10.4221 22.4849C10.3671 22.5399 10.3397 22.5674 10.3121 22.5928C9.97832 22.9013 9.5454 23.0807 9.09119 23.0985C9.05371 23.1 9.01486 23.1 8.93716 23.1H6.3C6.12272 23.1 6.03408 23.1 5.9593 23.0941C5.02312 23.0204 4.27957 22.2768 4.20588 21.3408C4.2 21.2659 4.2 21.1774 4.2 21C4.2 20.8226 4.2 20.7341 4.20588 20.6592C4.27957 19.7232 5.02312 18.9796 5.9593 18.9059C6.03408 18.9 6.12272 18.9 6.3 18.9H8.93714ZM19.5151 31.5779C19.6403 31.4527 19.7032 31.3898 19.7602 31.3412C20.4742 30.7312 21.5258 30.7312 22.2398 31.3412C22.2968 31.3898 22.3597 31.4527 22.4849 31.5779C22.5399 31.6329 22.5674 31.6604 22.5928 31.6879C22.9013 32.0218 23.0807 32.4545 23.0985 32.9089C23.1 32.9463 23.1 32.9851 23.1 33.0628V35.7C23.1 35.8774 23.1 35.9659 23.0941 36.0408C23.0204 36.9768 22.2768 37.7204 21.3408 37.7941C21.2659 37.8 21.1774 37.8 21 37.8C20.8226 37.8 20.7341 37.8 20.6592 37.7941C19.7232 37.7204 18.9796 36.9768 18.9059 36.0408C18.9 35.9659 18.9 35.8774 18.9 35.7V33.0628C18.9 32.9851 18.9 32.9463 18.9015 32.9089C18.9193 32.4545 19.0987 32.0218 19.4072 31.6879C19.4326 31.6604 19.4601 31.6329 19.5151 31.5779ZM27.3 3.81818C27.3 2.01827 27.3 1.11833 26.7408 0.559154C26.1817 -1.19209e-07 25.2817 0 23.4818 0H18.5182C16.7183 0 15.8183 -1.19209e-07 15.2592 0.559154C14.7 1.11833 14.7 2.01827 14.7 3.81818V9.96845C14.7 10.7488 14.7 11.139 14.8453 11.4898C14.9906 11.8406 15.2665 12.1165 15.8183 12.6683L18.3001 15.1501C19.573 16.4229 20.2093 17.0592 21 17.0592C21.7907 17.0592 22.427 16.4229 23.6998 15.1501L26.1817 12.6683C26.7334 12.1165 27.0094 11.8406 27.1547 11.4898C27.3 11.139 27.3 10.7488 27.3 9.96845V3.81818ZM42 18.5182C42 16.7183 42 15.8183 41.4408 15.2592C40.8817 14.7 39.9817 14.7 38.1818 14.7H32.0315C31.2512 14.7 30.861 14.7 30.5101 14.8453C30.1594 14.9906 29.8834 15.2665 29.3317 15.8183L26.8498 18.3002C25.577 19.573 24.9407 20.2093 24.9407 21C24.9407 21.7907 25.577 22.427 26.8498 23.6998L29.3317 26.1817C29.8834 26.7334 30.1594 27.0094 30.5101 27.1547C30.861 27.3 31.2512 27.3 32.0315 27.3H38.1818C39.9817 27.3 40.8817 27.3 41.4408 26.7408C42 26.1817 42 25.2817 42 23.4818V18.5182ZM12.6683 15.8183C12.1165 15.2665 11.8406 14.9906 11.4898 14.8453C11.139 14.7 10.7488 14.7 9.96845 14.7H3.81818C2.01827 14.7 1.11832 14.7 0.559159 15.2592C0 15.8183 0 16.7183 0 18.5182V23.4818C0 25.2817 0 26.1817 0.559159 26.7408C1.11832 27.3 2.01827 27.3 3.81818 27.3H9.96845C10.7488 27.3 11.139 27.3 11.4898 27.1547C11.8406 27.0094 12.1165 26.7334 12.6683 26.1817L15.1501 23.6998C16.4229 22.427 17.0592 21.7907 17.0592 21C17.0592 20.2093 16.4229 19.573 15.1501 18.3002L12.6683 15.8183ZM23.6998 26.8498C22.427 25.577 21.7907 24.9407 21 24.9407C20.2093 24.9407 19.573 25.577 18.3001 26.8498L15.8183 29.3317C15.2665 29.8834 14.9906 30.1594 14.8453 30.5101C14.7 30.861 14.7 31.2512 14.7 32.0315V38.1818C14.7 39.9817 14.7 40.8817 15.2592 41.4408C15.8183 42 16.7183 42 18.5182 42H23.4818C25.2817 42 26.1817 42 26.7408 41.4408C27.3 40.8817 27.3 39.9817 27.3 38.1818V32.0315C27.3 31.2512 27.3 30.861 27.1547 30.5101C27.0094 30.1594 26.7334 29.8834 26.1817 29.3317L23.6998 26.8498Z" fill="white"/>
<path d="M64.2233 20.7177C64.6167 20.7177 64.9655 20.6435 65.2698 20.495C65.5741 20.3392 65.8116 20.1239 65.9823 19.8493C66.1605 19.5673 66.2532 19.237 66.2606 18.8585H69.2776C69.2702 19.7046 69.0438 20.4579 68.5985 21.1185C68.1532 21.7716 67.5558 22.2874 66.8062 22.6659C66.0565 23.037 65.2179 23.2226 64.2901 23.2226C63.355 23.2226 62.5386 23.0667 61.8409 22.755C61.1507 22.4433 60.5755 22.0128 60.1153 21.4636C59.6552 20.9069 59.3101 20.2612 59.08 19.5265C58.8499 18.7843 58.7349 17.9901 58.7349 17.144V16.8212C58.7349 15.9677 58.8499 15.1735 59.08 14.4388C59.3101 13.6966 59.6552 13.0509 60.1153 12.5017C60.5755 11.945 61.1507 11.5108 61.8409 11.1991C62.5312 10.8874 63.3401 10.7315 64.2679 10.7315C65.255 10.7315 66.1196 10.9208 66.8618 11.2993C67.6114 11.6778 68.1978 12.2196 68.6208 12.9247C69.0513 13.6224 69.2702 14.4499 69.2776 15.4073H66.2606C66.2532 15.0065 66.1679 14.6429 66.0046 14.3163C65.8487 13.9897 65.6187 13.73 65.3144 13.537C65.0175 13.3366 64.6501 13.2364 64.2122 13.2364C63.7446 13.2364 63.3624 13.3366 63.0655 13.537C62.7687 13.73 62.5386 13.9972 62.3753 14.3386C62.212 14.6726 62.097 15.0548 62.0302 15.4853C61.9708 15.9083 61.9411 16.3536 61.9411 16.8212V17.144C61.9411 17.6116 61.9708 18.0606 62.0302 18.4911C62.0896 18.9216 62.2009 19.3038 62.3642 19.6378C62.5349 19.9718 62.7687 20.2353 63.0655 20.4282C63.3624 20.6212 63.7483 20.7177 64.2233 20.7177ZM70.6247 17.0995V16.8657C70.6247 15.9825 70.7509 15.1698 71.0032 14.4276C71.2556 13.678 71.623 13.0286 72.1054 12.4794C72.5878 11.9302 73.1815 11.5034 73.8866 11.1991C74.5917 10.8874 75.4007 10.7315 76.3136 10.7315C77.2265 10.7315 78.0392 10.8874 78.7517 11.1991C79.4642 11.5034 80.0616 11.9302 80.544 12.4794C81.0339 13.0286 81.405 13.678 81.6573 14.4276C81.9097 15.1698 82.0358 15.9825 82.0358 16.8657V17.0995C82.0358 17.9753 81.9097 18.788 81.6573 19.5376C81.405 20.2798 81.0339 20.9292 80.544 21.4858C80.0616 22.0351 79.4679 22.4618 78.7628 22.7661C78.0577 23.0704 77.2487 23.2226 76.3358 23.2226C75.423 23.2226 74.6103 23.0704 73.8978 22.7661C73.1927 22.4618 72.5952 22.0351 72.1054 21.4858C71.623 20.9292 71.2556 20.2798 71.0032 19.5376C70.7509 18.788 70.6247 17.9753 70.6247 17.0995ZM73.831 16.8657V17.0995C73.831 17.6042 73.8755 18.0755 73.9646 18.5134C74.0536 18.9513 74.1946 19.3372 74.3876 19.6712C74.588 19.9978 74.8478 20.2538 75.1669 20.4394C75.486 20.6249 75.8757 20.7177 76.3358 20.7177C76.7812 20.7177 77.1634 20.6249 77.4825 20.4394C77.8017 20.2538 78.0577 19.9978 78.2507 19.6712C78.4437 19.3372 78.5847 18.9513 78.6737 18.5134C78.7702 18.0755 78.8185 17.6042 78.8185 17.0995V16.8657C78.8185 16.3759 78.7702 15.9157 78.6737 15.4853C78.5847 15.0474 78.4399 14.6614 78.2396 14.3274C78.0466 13.986 77.7905 13.7188 77.4714 13.5259C77.1522 13.3329 76.7663 13.2364 76.3136 13.2364C75.8608 13.2364 75.4749 13.3329 75.1558 13.5259C74.844 13.7188 74.588 13.986 74.3876 14.3274C74.1946 14.6614 74.0536 15.0474 73.9646 15.4853C73.8755 15.9157 73.831 16.3759 73.831 16.8657ZM91.1202 20.3726V5.8999H94.3487V22.9999H91.4431L91.1202 20.3726ZM83.5054 17.1218V16.888C83.5054 15.9677 83.6093 15.1327 83.8171 14.3831C84.0249 13.6261 84.3292 12.9767 84.73 12.4349C85.1308 11.8931 85.6243 11.4737 86.2106 11.1769C86.797 10.88 87.4649 10.7315 88.2146 10.7315C88.9196 10.7315 89.5356 10.88 90.0626 11.1769C90.597 11.4737 91.0497 11.8968 91.4208 12.446C91.7993 12.9878 92.1036 13.6298 92.3337 14.372C92.5638 15.1067 92.7308 15.912 92.8347 16.7878V17.2999C92.7308 18.1386 92.5638 18.9179 92.3337 19.6378C92.1036 20.3577 91.7993 20.9886 91.4208 21.5304C91.0497 22.0647 90.597 22.4804 90.0626 22.7772C89.5282 23.0741 88.9048 23.2226 88.1923 23.2226C87.4427 23.2226 86.7747 23.0704 86.1884 22.7661C85.6095 22.4618 85.1196 22.0351 84.7188 21.4858C84.3255 20.9366 84.0249 20.2909 83.8171 19.5487C83.6093 18.8065 83.5054 17.9976 83.5054 17.1218ZM86.7116 16.888V17.1218C86.7116 17.619 86.7487 18.0829 86.8229 18.5134C86.9046 18.9438 87.0345 19.3261 87.2126 19.6601C87.3981 19.9866 87.6356 20.2427 87.9251 20.4282C88.222 20.6063 88.5819 20.6954 89.005 20.6954C89.5542 20.6954 90.0069 20.5729 90.3632 20.328C90.7194 20.0757 90.9903 19.7306 91.1759 19.2927C91.3688 18.8548 91.4802 18.3501 91.5099 17.7786V16.3202C91.4876 15.8526 91.4208 15.4333 91.3095 15.0622C91.2056 14.6837 91.0497 14.3608 90.8419 14.0937C90.6415 13.8265 90.3892 13.6187 90.0849 13.4702C89.788 13.3218 89.4354 13.2476 89.0272 13.2476C88.6116 13.2476 88.2554 13.344 87.9585 13.537C87.6616 13.7226 87.4204 13.9786 87.2349 14.3052C87.0567 14.6317 86.9231 15.0177 86.8341 15.463C86.7524 15.9009 86.7116 16.3759 86.7116 16.888ZM96.3415 17.0995V16.8657C96.3415 15.9825 96.4677 15.1698 96.72 14.4276C96.9724 13.678 97.3397 13.0286 97.8222 12.4794C98.3046 11.9302 98.8983 11.5034 99.6034 11.1991C100.308 10.8874 101.117 10.7315 102.03 10.7315C102.943 10.7315 103.756 10.8874 104.468 11.1991C105.181 11.5034 105.778 11.9302 106.261 12.4794C106.751 13.0286 107.122 13.678 107.374 14.4276C107.626 15.1698 107.753 15.9825 107.753 16.8657V17.0995C107.753 17.9753 107.626 18.788 107.374 19.5376C107.122 20.2798 106.751 20.9292 106.261 21.4858C105.778 22.0351 105.185 22.4618 104.479 22.7661C103.774 23.0704 102.965 23.2226 102.053 23.2226C101.14 23.2226 100.327 23.0704 99.6146 22.7661C98.9095 22.4618 98.312 22.0351 97.8222 21.4858C97.3397 20.9292 96.9724 20.2798 96.72 19.5376C96.4677 18.788 96.3415 17.9753 96.3415 17.0995ZM99.5478 16.8657V17.0995C99.5478 17.6042 99.5923 18.0755 99.6813 18.5134C99.7704 18.9513 99.9114 19.3372 100.104 19.6712C100.305 19.9978 100.564 20.2538 100.884 20.4394C101.203 20.6249 101.592 20.7177 102.053 20.7177C102.498 20.7177 102.88 20.6249 103.199 20.4394C103.518 20.2538 103.774 19.9978 103.967 19.6712C104.16 19.3372 104.301 18.9513 104.39 18.5134C104.487 18.0755 104.535 17.6042 104.535 17.0995V16.8657C104.535 16.3759 104.487 15.9157 104.39 15.4853C104.301 15.0474 104.157 14.6614 103.956 14.3274C103.763 13.986 103.507 13.7188 103.188 13.5259C102.869 13.3329 102.483 13.2364 102.03 13.2364C101.578 13.2364 101.192 13.3329 100.872 13.5259C100.561 13.7188 100.305 13.986 100.104 14.3274C99.9114 14.6614 99.7704 15.0474 99.6813 15.4853C99.5923 15.9157 99.5478 16.3759 99.5478 16.8657ZM115.623 10.9542V13.2253H108.61V10.9542H115.623ZM110.346 7.98174H113.553V19.3706C113.553 19.7194 113.597 19.9866 113.686 20.1722C113.783 20.3577 113.924 20.4876 114.109 20.5618C114.295 20.6286 114.529 20.662 114.811 20.662C115.011 20.662 115.189 20.6546 115.345 20.6397C115.508 20.6175 115.646 20.5952 115.757 20.5729L115.768 22.9331C115.494 23.0222 115.197 23.0927 114.878 23.1446C114.558 23.1966 114.206 23.2226 113.82 23.2226C113.115 23.2226 112.499 23.1075 111.972 22.8774C111.452 22.6399 111.052 22.2614 110.77 21.7419C110.487 21.2224 110.346 20.5395 110.346 19.6935V7.98174ZM122.993 23.2226C122.058 23.2226 121.22 23.0741 120.477 22.7772C119.735 22.4729 119.104 22.0536 118.585 21.5192C118.073 20.9849 117.679 20.3651 117.405 19.6601C117.13 18.9476 116.993 18.1905 116.993 17.389V16.9437C116.993 16.0308 117.123 15.1958 117.382 14.4388C117.642 13.6817 118.013 13.0249 118.496 12.4683C118.986 11.9116 119.579 11.4849 120.277 11.188C120.975 10.8837 121.761 10.7315 122.637 10.7315C123.491 10.7315 124.248 10.8726 124.908 11.1546C125.569 11.4366 126.122 11.8374 126.567 12.3569C127.02 12.8765 127.361 13.4999 127.591 14.2272C127.821 14.9472 127.936 15.7487 127.936 16.6319V17.9679H118.362V15.8304H124.786V15.5854C124.786 15.1401 124.704 14.7431 124.541 14.3942C124.385 14.038 124.147 13.756 123.828 13.5481C123.509 13.3403 123.101 13.2364 122.604 13.2364C122.181 13.2364 121.817 13.3292 121.513 13.5147C121.208 13.7003 120.96 13.9601 120.767 14.294C120.581 14.628 120.44 15.0214 120.344 15.4741C120.255 15.9194 120.21 16.4093 120.21 16.9437V17.389C120.21 17.8714 120.277 18.3167 120.411 18.7249C120.552 19.1331 120.748 19.4856 121.001 19.7825C121.26 20.0794 121.572 20.3095 121.936 20.4728C122.307 20.636 122.726 20.7177 123.194 20.7177C123.773 20.7177 124.311 20.6063 124.808 20.3837C125.313 20.1536 125.747 19.8085 126.111 19.3483L127.669 21.0405C127.417 21.4042 127.072 21.753 126.634 22.087C126.203 22.421 125.684 22.6956 125.075 22.9108C124.467 23.1186 123.773 23.2226 122.993 23.2226ZM134.738 20.7177C135.132 20.7177 135.481 20.6435 135.785 20.495C136.089 20.3392 136.327 20.1239 136.497 19.8493C136.676 19.5673 136.768 19.237 136.776 18.8585H139.793C139.785 19.7046 139.559 20.4579 139.114 21.1185C138.668 21.7716 138.071 22.2874 137.321 22.6659C136.572 23.037 135.733 23.2226 134.805 23.2226C133.87 23.2226 133.054 23.0667 132.356 22.755C131.666 22.4433 131.091 22.0128 130.63 21.4636C130.17 20.9069 129.825 20.2612 129.595 19.5265C129.365 18.7843 129.25 17.9901 129.25 17.144V16.8212C129.25 15.9677 129.365 15.1735 129.595 14.4388C129.825 13.6966 130.17 13.0509 130.63 12.5017C131.091 11.945 131.666 11.5108 132.356 11.1991C133.046 10.8874 133.855 10.7315 134.783 10.7315C135.77 10.7315 136.635 10.9208 137.377 11.2993C138.127 11.6778 138.713 12.2196 139.136 12.9247C139.566 13.6224 139.785 14.4499 139.793 15.4073H136.776C136.768 15.0065 136.683 14.6429 136.52 14.3163C136.364 13.9897 136.134 13.73 135.829 13.537C135.533 13.3366 135.165 13.2364 134.727 13.2364C134.26 13.2364 133.878 13.3366 133.581 13.537C133.284 13.73 133.054 13.9972 132.89 14.3386C132.727 14.6726 132.612 15.0548 132.545 15.4853C132.486 15.9083 132.456 16.3536 132.456 16.8212V17.144C132.456 17.6116 132.486 18.0606 132.545 18.4911C132.605 18.9216 132.716 19.3038 132.879 19.6378C133.05 19.9718 133.284 20.2353 133.581 20.4282C133.878 20.6212 134.263 20.7177 134.738 20.7177ZM144.78 5.8999V22.9999H141.574V5.8999H144.78ZM144.324 16.554H143.444C143.452 15.7153 143.563 14.9435 143.778 14.2384C143.994 13.5259 144.302 12.9099 144.702 12.3903C145.103 11.8634 145.582 11.4552 146.138 11.1657C146.703 10.8763 147.326 10.7315 148.009 10.7315C148.603 10.7315 149.141 10.8169 149.623 10.9876C150.113 11.1509 150.532 11.4181 150.881 11.7892C151.237 12.1528 151.512 12.6315 151.705 13.2253C151.898 13.819 151.994 14.539 151.994 15.3851V22.9999H148.766V15.3628C148.766 14.8284 148.688 14.4091 148.532 14.1048C148.384 13.7931 148.165 13.5741 147.875 13.4479C147.593 13.3144 147.244 13.2476 146.829 13.2476C146.369 13.2476 145.975 13.3329 145.649 13.5036C145.329 13.6743 145.073 13.9118 144.88 14.2161C144.687 14.513 144.546 14.8618 144.457 15.2626C144.368 15.6634 144.324 16.0938 144.324 16.554Z" fill="white"/>
<path d="M58 38.0673L62.8748 35.6748V34.7533L58 32.3672V33.5727L61.572 35.0877L61.9032 35.2077L61.572 35.3151L58 36.8552V38.0673ZM70.7994 35.8389V35.9715C70.7994 36.4596 70.8545 36.9162 70.965 37.3413C71.0754 37.7622 71.2337 38.1284 71.4398 38.4397C71.6422 38.7511 71.8907 38.9952 72.1851 39.1719C72.4795 39.3487 72.8089 39.437 73.1733 39.437C73.3905 39.437 73.5928 39.4098 73.7807 39.355C73.9684 39.3045 74.1395 39.2308 74.294 39.1341C74.3933 39.0709 74.4855 38.9973 74.57 38.9132C74.6584 38.8291 74.7413 38.7363 74.8185 38.6355V39.2224C74.8185 39.517 74.7817 39.778 74.7081 40.0051C74.6346 40.2325 74.5296 40.4218 74.3933 40.5733C74.2536 40.7291 74.0861 40.8468 73.891 40.9268C73.696 41.0068 73.4769 41.0468 73.234 41.0468C73.0979 41.0468 72.9616 41.0299 72.8255 40.9963C72.6894 40.9668 72.5531 40.9163 72.4169 40.8448C72.2808 40.7732 72.1465 40.6764 72.014 40.5543C71.8815 40.4366 71.7526 40.2913 71.6275 40.1189L71.0975 40.8194C71.2337 41.0425 71.3956 41.2298 71.5833 41.3814C71.7747 41.5329 71.9734 41.6527 72.1795 41.7411C72.382 41.8337 72.5826 41.899 72.7813 41.9367C72.98 41.979 73.1567 42 73.3114 42C73.6868 42 74.029 41.9367 74.3382 41.8106C74.6474 41.6844 74.9142 41.4991 75.1387 41.255C75.3595 41.0109 75.5306 40.7143 75.6521 40.3651C75.7773 40.0157 75.8398 39.6159 75.8398 39.1657V32.4808H74.9124L74.8626 33.2256C74.7927 33.1246 74.7173 33.032 74.6364 32.9479C74.559 32.8638 74.4763 32.79 74.3879 32.7269C74.226 32.6049 74.0437 32.5123 73.8413 32.4492C73.6426 32.3861 73.4235 32.3546 73.1843 32.3546C72.8127 32.3546 72.4795 32.4408 72.1851 32.6133C71.8907 32.7859 71.6404 33.0258 71.4343 33.333C71.2281 33.6401 71.07 34.0083 70.9595 34.4377C70.8527 34.8626 70.7994 35.3297 70.7994 35.8389ZM71.8207 35.9715V35.8389C71.8207 35.5066 71.8501 35.191 71.9091 34.8921C71.9716 34.5891 72.0692 34.3219 72.2017 34.0904C72.3304 33.8632 72.4961 33.6822 72.6986 33.5476C72.9046 33.413 73.1513 33.3456 73.4383 33.3456C73.6076 33.3456 73.7621 33.3709 73.902 33.4214C74.0419 33.4676 74.1689 33.5328 74.283 33.617C74.3971 33.7053 74.4983 33.8086 74.5866 33.9263C74.675 34.0442 74.7523 34.1747 74.8185 34.3177V37.4487C74.7523 37.5959 74.675 37.7307 74.5866 37.8527C74.4983 37.9748 74.3989 38.0799 74.2886 38.1683C74.1744 38.2566 74.0456 38.3261 73.902 38.3766C73.7621 38.4229 73.604 38.446 73.4273 38.446C73.1439 38.446 72.901 38.3807 72.6986 38.2504C72.4961 38.1156 72.3304 37.9348 72.2017 37.7074C72.0692 37.4802 71.9716 37.2172 71.9091 36.9185C71.8501 36.6196 71.8207 36.304 71.8207 35.9715ZM87.9216 39.3108H88.9871V39.2098C88.9208 39.0204 88.8692 38.7996 88.8325 38.547C88.7957 38.2904 88.7773 38.0484 88.7773 37.821V34.6459C88.7773 34.2629 88.7165 33.9283 88.5952 33.6422C88.4737 33.3561 88.308 33.1161 88.0983 32.9226C87.8848 32.7333 87.6326 32.5923 87.3419 32.4997C87.0511 32.4029 86.7364 32.3546 86.3978 32.3546C86.0262 32.3546 85.693 32.4134 85.3986 32.5313C85.1078 32.6492 84.8611 32.8028 84.6588 32.992C84.4527 33.1856 84.2944 33.4024 84.1839 33.6422C84.0772 33.8822 84.022 34.1262 84.0184 34.3744H85.0452C85.0452 34.2314 85.0746 34.0947 85.1335 33.9642C85.1961 33.8296 85.2826 33.7137 85.393 33.617C85.5035 33.5202 85.6378 33.4424 85.7961 33.3835C85.958 33.3245 86.1401 33.2951 86.3426 33.2951C86.5598 33.2951 86.7549 33.3266 86.9278 33.3897C87.1045 33.4529 87.2536 33.5412 87.375 33.655C87.4965 33.7727 87.5904 33.9137 87.6566 34.0778C87.7228 34.2419 87.7559 34.427 87.7559 34.6334V35.1699H86.6408C86.2249 35.1699 85.8475 35.2161 85.5089 35.3087C85.1741 35.4013 84.8869 35.5402 84.6477 35.7253C84.4086 35.9148 84.2227 36.1504 84.0902 36.4324C83.9613 36.7144 83.8969 37.0426 83.8969 37.4172C83.8969 37.7033 83.9447 37.9705 84.0404 38.2189C84.1398 38.4629 84.2797 38.6732 84.46 38.8501C84.6367 39.0309 84.8519 39.1741 85.106 39.2793C85.3636 39.3844 85.6506 39.437 85.9672 39.437C86.1623 39.437 86.3464 39.4139 86.5193 39.3677C86.6922 39.3213 86.8561 39.2583 87.0106 39.1783C87.1615 39.0983 87.2996 39.0057 87.4247 38.9006C87.5535 38.7953 87.6694 38.6837 87.7725 38.566C87.7835 38.7091 87.8001 38.8478 87.8223 38.9826C87.8479 39.1131 87.881 39.2224 87.9216 39.3108ZM86.1163 38.4207C85.9175 38.4207 85.7427 38.3914 85.5918 38.3324C85.4409 38.2735 85.3158 38.1914 85.2163 38.0863C85.117 37.9853 85.0416 37.8633 84.99 37.72C84.9422 37.5769 84.9183 37.4213 84.9183 37.2531C84.9183 37.0762 84.9459 36.9185 85.001 36.7796C85.06 36.6406 85.1445 36.5206 85.2551 36.4198C85.4096 36.2766 85.6176 36.1714 85.8789 36.104C86.1439 36.0325 86.4531 35.9968 86.8063 35.9968H87.7559V37.3792C87.6971 37.5139 87.616 37.6443 87.5131 37.7705C87.4099 37.8926 87.2886 38.002 87.1487 38.0989C87.0052 38.1956 86.8469 38.2735 86.6738 38.3324C86.5009 38.3914 86.315 38.4207 86.1163 38.4207ZM97.4748 32.4808H96.5583V39.3108H97.5299V33.8758C97.5521 33.8086 97.5797 33.7453 97.6127 33.6865C97.6496 33.6276 97.6918 33.575 97.7398 33.5286C97.8023 33.4697 97.8777 33.4255 97.9661 33.3961C98.0582 33.3625 98.1649 33.3456 98.2863 33.3456C98.3968 33.3456 98.4924 33.3625 98.5735 33.3961C98.658 33.4255 98.728 33.474 98.7832 33.5412C98.8421 33.6127 98.8845 33.7032 98.9101 33.8127C98.9396 33.9221 98.9543 34.0483 98.9543 34.1914V39.3108H99.926V34.1978C99.926 34.1724 99.926 34.1514 99.926 34.1347C99.926 34.1137 99.926 34.0926 99.926 34.0714C99.937 33.9663 99.959 33.8716 99.9922 33.7875C100.025 33.6991 100.071 33.6212 100.13 33.554C100.189 33.4907 100.263 33.4402 100.351 33.4024C100.439 33.3645 100.544 33.3456 100.666 33.3456C100.78 33.3456 100.879 33.3625 100.964 33.3961C101.052 33.4297 101.126 33.4802 101.185 33.5476C101.24 33.6191 101.282 33.7096 101.312 33.8191C101.341 33.9283 101.356 34.0547 101.356 34.1978V39.3108H102.328V34.2104C102.328 33.8822 102.294 33.5981 102.228 33.3581C102.162 33.1141 102.066 32.9164 101.941 32.7648C101.827 32.6302 101.687 32.5292 101.521 32.4618C101.356 32.3903 101.17 32.3546 100.964 32.3546C100.813 32.3587 100.673 32.3818 100.544 32.4239C100.419 32.4661 100.305 32.5228 100.202 32.5944C100.121 32.6575 100.046 32.7312 99.9756 32.8153C99.9057 32.8995 99.8451 32.99 99.7935 33.0868C99.753 32.9815 99.7034 32.8869 99.6444 32.8028C99.5892 32.7185 99.5267 32.6469 99.4567 32.5882C99.361 32.5123 99.2487 32.4554 99.1199 32.4177C98.9948 32.3756 98.8531 32.3546 98.6948 32.3546C98.4152 32.3587 98.1759 32.4282 97.9771 32.5628C97.782 32.6974 97.6239 32.8848 97.5023 33.1246L97.4748 32.4808ZM110.175 32.4808V33.4971H112.206V38.3009H110.175V39.3108H115.177V38.3009H113.228V32.4808H110.175ZM112.074 30.6881C112.074 30.8774 112.124 31.0353 112.223 31.1614C112.326 31.2878 112.481 31.3509 112.687 31.3509C112.889 31.3509 113.042 31.2878 113.145 31.1614C113.248 31.0353 113.3 30.8774 113.3 30.6881C113.3 30.5828 113.285 30.4861 113.255 30.3977C113.226 30.3092 113.182 30.2356 113.123 30.1767C113.075 30.122 113.014 30.08 112.941 30.0505C112.867 30.0169 112.782 30 112.687 30C112.591 30 112.505 30.0169 112.427 30.0505C112.354 30.08 112.293 30.122 112.245 30.1767C112.186 30.2398 112.142 30.3156 112.113 30.404C112.087 30.4923 112.074 30.5871 112.074 30.6881ZM123.024 39.3108H124.045V34.4124C124.115 34.2652 124.196 34.1304 124.288 34.0083C124.384 33.8863 124.487 33.7791 124.597 33.6865C124.733 33.5812 124.883 33.4991 125.044 33.4402C125.207 33.3771 125.381 33.3456 125.569 33.3456C125.786 33.3456 125.977 33.375 126.143 33.434C126.312 33.4929 126.456 33.5876 126.574 33.7181C126.688 33.8485 126.774 34.0188 126.833 34.2293C126.892 34.4398 126.922 34.6964 126.922 34.9995V39.3108H127.943V34.9741C127.943 34.5198 127.893 34.1283 127.794 33.8001C127.698 33.4676 127.56 33.194 127.38 32.9794C127.199 32.7648 126.98 32.607 126.723 32.5059C126.469 32.4051 126.185 32.3546 125.873 32.3546C125.641 32.3587 125.42 32.3987 125.21 32.4744C125.004 32.5459 124.813 32.6492 124.636 32.7838C124.518 32.8721 124.406 32.9774 124.299 33.0994C124.196 33.2171 124.1 33.3476 124.012 33.4907L123.94 32.4808H123.024V39.3108ZM135.845 35.8389V35.9715C135.845 36.4596 135.901 36.9162 136.011 37.3413C136.121 37.7622 136.28 38.1284 136.486 38.4397C136.688 38.7511 136.937 38.9952 137.231 39.1719C137.526 39.3487 137.855 39.437 138.219 39.437C138.436 39.437 138.639 39.4098 138.827 39.355C139.014 39.3045 139.186 39.2308 139.34 39.1341C139.439 39.0709 139.531 38.9973 139.616 38.9132C139.704 38.8291 139.787 38.7363 139.865 38.6355V39.2224C139.865 39.517 139.828 39.778 139.754 40.0051C139.68 40.2325 139.576 40.4218 139.439 40.5733C139.299 40.7291 139.132 40.8468 138.937 40.9268C138.742 41.0068 138.523 41.0468 138.28 41.0468C138.144 41.0468 138.008 41.0299 137.872 40.9963C137.735 40.9668 137.599 40.9163 137.463 40.8448C137.327 40.7732 137.192 40.6764 137.06 40.5543C136.928 40.4366 136.799 40.2913 136.673 40.1189L136.143 40.8194C136.28 41.0425 136.442 41.2298 136.629 41.3814C136.821 41.5329 137.019 41.6527 137.226 41.7411C137.428 41.8337 137.629 41.899 137.827 41.9367C138.026 41.979 138.203 42 138.357 42C138.733 42 139.075 41.9367 139.384 41.8106C139.693 41.6844 139.96 41.4991 140.185 41.255C140.406 41.0109 140.577 40.7143 140.698 40.3651C140.823 40.0157 140.886 39.6159 140.886 39.1657V32.4808H139.958L139.909 33.2256C139.839 33.1246 139.763 33.032 139.682 32.9479C139.605 32.8638 139.522 32.79 139.434 32.7269C139.272 32.6049 139.09 32.5123 138.887 32.4492C138.689 32.3861 138.47 32.3546 138.23 32.3546C137.859 32.3546 137.526 32.4408 137.231 32.6133C136.937 32.7859 136.686 33.0258 136.48 33.333C136.274 33.6401 136.116 34.0083 136.005 34.4377C135.899 34.8626 135.845 35.3297 135.845 35.8389ZM136.867 35.9715V35.8389C136.867 35.5066 136.896 35.191 136.955 34.8921C137.018 34.5891 137.115 34.3219 137.248 34.0904C137.376 33.8632 137.542 33.6822 137.745 33.5476C137.951 33.413 138.197 33.3456 138.484 33.3456C138.654 33.3456 138.808 33.3709 138.948 33.4214C139.088 33.4676 139.215 33.5328 139.329 33.617C139.443 33.7053 139.544 33.8086 139.633 33.9263C139.721 34.0442 139.798 34.1747 139.865 34.3177V37.4487C139.798 37.5959 139.721 37.7307 139.633 37.8527C139.544 37.9748 139.445 38.0799 139.334 38.1683C139.22 38.2566 139.092 38.3261 138.948 38.3766C138.808 38.4229 138.65 38.446 138.473 38.446C138.19 38.446 137.947 38.3807 137.745 38.2504C137.542 38.1156 137.376 37.9348 137.248 37.7074C137.115 37.4802 137.018 37.2172 136.955 36.9185C136.896 36.6196 136.867 36.304 136.867 35.9715ZM154 40.264V39.3108H148.937V40.264H154Z" fill="white"/>
</g>
<defs>
<clipPath id="clip0_51112_65093">
<rect width="154" height="42" fill="white"/>
</clipPath>
</defs>
</svg>
