<svg width="30" height="32" viewBox="0 0 30 32" fill="none" xmlns="http://www.w3.org/2000/svg">
<path d="M15 3.2C15.1267 3.2 15.19 3.2 15.2434 3.20448C15.912 3.26063 16.4431 3.82714 16.4958 4.54042C16.5 4.5974 16.5 4.66493 16.5 4.8V6.80925C16.5 6.86847 16.5 6.89807 16.4989 6.92662C16.4862 7.27268 16.358 7.60253 16.1377 7.85686C16.1195 7.87783 16.0999 7.89876 16.0606 7.94063C15.9712 8.03613 15.9263 8.0839 15.8855 8.121C15.3755 8.58567 14.6245 8.58567 14.1145 8.121C14.0737 8.0839 14.0288 8.03613 13.9394 7.94063C13.9001 7.89876 13.8805 7.87783 13.8623 7.85686C13.642 7.60253 13.5138 7.27268 13.5011 6.92662C13.5 6.89807 13.5 6.86847 13.5 6.80927V4.8C13.5 4.66493 13.5 4.5974 13.5042 4.54042C13.5568 3.82714 14.088 3.26063 14.7566 3.20448C14.81 3.2 14.8733 3.2 15 3.2ZM25.5 14.4C25.6267 14.4 25.69 14.4 25.7434 14.4045C26.412 14.4607 26.9431 15.0272 26.9958 15.7404C27 15.7974 27 15.8649 27 16C27 16.1351 27 16.2026 26.9958 16.2596C26.9431 16.9728 26.412 17.5393 25.7434 17.5955C25.69 17.6 25.6267 17.6 25.5 17.6H23.6163C23.5608 17.6 23.5331 17.6 23.5064 17.5988C23.1818 17.5853 22.8727 17.4486 22.6342 17.2135C22.6145 17.1942 22.5949 17.1732 22.5556 17.1313C22.4662 17.0359 22.4213 16.9881 22.3865 16.9446C21.9509 16.4006 21.9509 15.5994 22.3865 15.0554C22.4213 15.0119 22.4662 14.9641 22.5556 14.8687C22.5949 14.8268 22.6145 14.8058 22.6342 14.7865C22.8727 14.5514 23.1818 14.4147 23.5064 14.4012C23.5331 14.4 23.5608 14.4 23.6163 14.4H25.5ZM6.38367 14.4C6.43919 14.4 6.46694 14.4 6.4937 14.4012C6.81814 14.4147 7.12737 14.5514 7.3658 14.7865C7.38547 14.8058 7.40509 14.8268 7.44434 14.8687C7.53387 14.9641 7.57865 15.0119 7.61344 15.0554C8.04907 15.5994 8.04907 16.4006 7.61344 16.9446C7.57865 16.9881 7.53387 17.0359 7.44434 17.1313C7.40509 17.1732 7.38547 17.1942 7.3658 17.2135C7.12737 17.4486 6.81814 17.5853 6.4937 17.5988C6.46694 17.6 6.43919 17.6 6.38369 17.6H4.5C4.37337 17.6 4.31006 17.6 4.25665 17.5955C3.58795 17.5393 3.05684 16.9728 3.0042 16.2596C3 16.2026 3 16.1351 3 16C3 15.8649 3 15.7974 3.0042 15.7404C3.05684 15.0272 3.58795 14.4607 4.25665 14.4045C4.31006 14.4 4.37337 14.4 4.5 14.4H6.38367ZM13.9394 24.0593C14.0288 23.9639 14.0737 23.9161 14.1145 23.879C14.6245 23.4143 15.3755 23.4143 15.8855 23.879C15.9263 23.9161 15.9712 23.9639 16.0606 24.0593C16.0999 24.1012 16.1195 24.1222 16.1377 24.1431C16.358 24.3975 16.4862 24.7273 16.4989 25.0735C16.5 25.102 16.5 25.1315 16.5 25.1907V27.2C16.5 27.3351 16.5 27.4026 16.4958 27.4596C16.4431 28.1728 15.912 28.7393 15.2434 28.7955C15.19 28.8 15.1267 28.8 15 28.8C14.8733 28.8 14.81 28.8 14.7566 28.7955C14.088 28.7393 13.5568 28.1728 13.5042 27.4596C13.5 27.4026 13.5 27.3351 13.5 27.2V25.1907C13.5 25.1315 13.5 25.102 13.5011 25.0735C13.5138 24.7273 13.642 24.3975 13.8623 24.1431C13.8805 24.1222 13.9001 24.1012 13.9394 24.0593ZM19.5 2.90909C19.5 1.53773 19.5 0.852058 19.1006 0.426022C18.7012 -8.66977e-08 18.0584 0 16.7727 0H13.2273C11.9416 0 11.2988 -8.66977e-08 10.8994 0.426022C10.5 0.852058 10.5 1.53773 10.5 2.90909V7.59501C10.5 8.18956 10.5 8.48684 10.6038 8.75414C10.7076 9.02144 10.9047 9.23165 11.2988 9.65206L13.0715 11.543C13.9807 12.5127 14.4352 12.9975 15 12.9975C15.5648 12.9975 16.0193 12.5127 16.9285 11.543L18.7012 9.65206C19.0953 9.23165 19.2925 9.02144 19.3962 8.75414C19.5 8.48684 19.5 8.18956 19.5 7.59501V2.90909ZM30 14.1091C30 12.7377 30 12.0521 29.6006 11.626C29.2012 11.2 28.5584 11.2 27.2727 11.2H22.8796C22.3223 11.2 22.0436 11.2 21.793 11.3107C21.5425 11.4214 21.3453 11.6317 20.9512 12.0521L19.1785 13.943C18.2693 14.9127 17.8148 15.3975 17.8148 16C17.8148 16.6025 18.2693 17.0873 19.1785 18.057L20.9512 19.9479C21.3453 20.3683 21.5425 20.5786 21.793 20.6893C22.0436 20.8 22.3223 20.8 22.8796 20.8H27.2727C28.5584 20.8 29.2012 20.8 29.6006 20.374C30 19.9479 30 19.2623 30 17.8909V14.1091ZM9.0488 12.0521C8.65467 11.6317 8.4576 11.4214 8.207 11.3107C7.95641 11.2 7.67771 11.2 7.12032 11.2H2.72727C1.44162 11.2 0.798799 11.2 0.3994 11.626C0 12.0521 0 12.7377 0 14.1091V17.8909C0 19.2623 0 19.9479 0.3994 20.374C0.798799 20.8 1.44162 20.8 2.72727 20.8H7.12032C7.67771 20.8 7.95641 20.8 8.207 20.6893C8.4576 20.5786 8.65467 20.3683 9.0488 19.9479L10.8215 18.057C11.7306 17.0873 12.1852 16.6025 12.1852 16C12.1852 15.3975 11.7306 14.9127 10.8215 13.943L9.0488 12.0521ZM16.9285 20.457C16.0193 19.4873 15.5648 19.0025 15 19.0025C14.4352 19.0025 13.9807 19.4873 13.0715 20.457L11.2988 22.3479C10.9047 22.7683 10.7076 22.9786 10.6038 23.2458C10.5 23.5132 10.5 23.8105 10.5 24.4049V29.0909C10.5 30.4623 10.5 31.1479 10.8994 31.574C11.2988 32 11.9416 32 13.2273 32H16.7727C18.0584 32 18.7012 32 19.1006 31.574C19.5 31.1479 19.5 30.4623 19.5 29.0909V24.4049C19.5 23.8105 19.5 23.5132 19.3962 23.2458C19.2925 22.9786 19.0953 22.7683 18.7012 22.3479L16.9285 20.457Z" fill="white"/>
</svg>
