<svg width="154" height="42" viewBox="0 0 154 42" fill="none" xmlns="http://www.w3.org/2000/svg">
<path d="M21 4.2C21.1774 4.2 21.2659 4.2 21.3408 4.20588C22.2768 4.27957 23.0204 5.02312 23.0941 5.9593C23.1 6.03408 23.1 6.12272 23.1 6.3V8.93714C23.1 9.01486 23.1 9.05371 23.0985 9.09119C23.0807 9.5454 22.9013 9.97832 22.5928 10.3121C22.5674 10.3397 22.5399 10.3671 22.4849 10.4221C22.3597 10.5474 22.2968 10.6101 22.2398 10.6588C21.5258 11.2687 20.4742 11.2687 19.7602 10.6588C19.7032 10.6101 19.6403 10.5474 19.5151 10.4221C19.4601 10.3671 19.4326 10.3397 19.4072 10.3121C19.0987 9.97832 18.9193 9.5454 18.9015 9.09119C18.9 9.05371 18.9 9.01486 18.9 8.93716V6.3C18.9 6.12272 18.9 6.03408 18.9059 5.9593C18.9796 5.02312 19.7232 4.27957 20.6592 4.20588C20.7341 4.2 20.8226 4.2 21 4.2ZM35.7 18.9C35.8774 18.9 35.9659 18.9 36.0408 18.9059C36.9768 18.9796 37.7204 19.7232 37.7941 20.6592C37.8 20.7341 37.8 20.8226 37.8 21C37.8 21.1774 37.8 21.2659 37.7941 21.3408C37.7204 22.2768 36.9768 23.0204 36.0408 23.0941C35.9659 23.1 35.8774 23.1 35.7 23.1H33.0628C32.9851 23.1 32.9463 23.1 32.9089 23.0985C32.4545 23.0807 32.0218 22.9013 31.6879 22.5928C31.6604 22.5674 31.6329 22.5399 31.5779 22.4849C31.4527 22.3597 31.3898 22.2968 31.3412 22.2398C30.7312 21.5258 30.7312 20.4742 31.3412 19.7602C31.3898 19.7032 31.4527 19.6403 31.5779 19.5151C31.6329 19.4601 31.6604 19.4326 31.6879 19.4072C32.0218 19.0987 32.4545 18.9193 32.9089 18.9015C32.9463 18.9 32.9851 18.9 33.0628 18.9H35.7ZM8.93714 18.9C9.01486 18.9 9.05371 18.9 9.09119 18.9015C9.5454 18.9193 9.97832 19.0987 10.3121 19.4072C10.3397 19.4326 10.3671 19.4601 10.4221 19.5151C10.5474 19.6403 10.6101 19.7032 10.6588 19.7602C11.2687 20.4742 11.2687 21.5258 10.6588 22.2398C10.6101 22.2968 10.5474 22.3597 10.4221 22.4849C10.3671 22.5399 10.3397 22.5674 10.3121 22.5928C9.97832 22.9013 9.5454 23.0807 9.09119 23.0985C9.05371 23.1 9.01486 23.1 8.93716 23.1H6.3C6.12272 23.1 6.03408 23.1 5.9593 23.0941C5.02312 23.0204 4.27957 22.2768 4.20588 21.3408C4.2 21.2659 4.2 21.1774 4.2 21C4.2 20.8226 4.2 20.7341 4.20588 20.6592C4.27957 19.7232 5.02312 18.9796 5.9593 18.9059C6.03408 18.9 6.12272 18.9 6.3 18.9H8.93714ZM19.5151 31.5779C19.6403 31.4527 19.7032 31.3898 19.7602 31.3412C20.4742 30.7312 21.5258 30.7312 22.2398 31.3412C22.2968 31.3898 22.3597 31.4527 22.4849 31.5779C22.5399 31.6329 22.5674 31.6604 22.5928 31.6879C22.9013 32.0218 23.0807 32.4545 23.0985 32.9089C23.1 32.9463 23.1 32.9851 23.1 33.0628V35.7C23.1 35.8774 23.1 35.9659 23.0941 36.0408C23.0204 36.9768 22.2768 37.7204 21.3408 37.7941C21.2659 37.8 21.1774 37.8 21 37.8C20.8226 37.8 20.7341 37.8 20.6592 37.7941C19.7232 37.7204 18.9796 36.9768 18.9059 36.0408C18.9 35.9659 18.9 35.8774 18.9 35.7V33.0628C18.9 32.9851 18.9 32.9463 18.9015 32.9089C18.9193 32.4545 19.0987 32.0218 19.4072 31.6879C19.4326 31.6604 19.4601 31.6329 19.5151 31.5779ZM27.3 3.81818C27.3 2.01827 27.3 1.11833 26.7408 0.559154C26.1817 -1.13791e-07 25.2817 0 23.4818 0H18.5182C16.7183 0 15.8183 -1.13791e-07 15.2592 0.559154C14.7 1.11833 14.7 2.01827 14.7 3.81818V9.96845C14.7 10.7488 14.7 11.139 14.8453 11.4898C14.9906 11.8406 15.2665 12.1165 15.8183 12.6683L18.3001 15.1501C19.573 16.4229 20.2093 17.0592 21 17.0592C21.7907 17.0592 22.427 16.4229 23.6998 15.1501L26.1817 12.6683C26.7334 12.1165 27.0094 11.8406 27.1547 11.4898C27.3 11.139 27.3 10.7488 27.3 9.96845V3.81818ZM42 18.5182C42 16.7183 42 15.8183 41.4408 15.2592C40.8817 14.7 39.9817 14.7 38.1818 14.7H32.0315C31.2512 14.7 30.861 14.7 30.5101 14.8453C30.1594 14.9906 29.8834 15.2665 29.3317 15.8183L26.8498 18.3002C25.577 19.573 24.9407 20.2093 24.9407 21C24.9407 21.7907 25.577 22.427 26.8498 23.6998L29.3317 26.1817C29.8834 26.7334 30.1594 27.0094 30.5101 27.1547C30.861 27.3 31.2512 27.3 32.0315 27.3H38.1818C39.9817 27.3 40.8817 27.3 41.4408 26.7408C42 26.1817 42 25.2817 42 23.4818V18.5182ZM12.6683 15.8183C12.1165 15.2665 11.8406 14.9906 11.4898 14.8453C11.139 14.7 10.7488 14.7 9.96845 14.7H3.81818C2.01827 14.7 1.11832 14.7 0.559159 15.2592C0 15.8183 0 16.7183 0 18.5182V23.4818C0 25.2817 0 26.1817 0.559159 26.7408C1.11832 27.3 2.01827 27.3 3.81818 27.3H9.96845C10.7488 27.3 11.139 27.3 11.4898 27.1547C11.8406 27.0094 12.1165 26.7334 12.6683 26.1817L15.1501 23.6998C16.4229 22.427 17.0592 21.7907 17.0592 21C17.0592 20.2093 16.4229 19.573 15.1501 18.3002L12.6683 15.8183ZM23.6998 26.8498C22.427 25.577 21.7907 24.9407 21 24.9407C20.2093 24.9407 19.573 25.577 18.3001 26.8498L15.8183 29.3317C15.2665 29.8834 14.9906 30.1594 14.8453 30.5101C14.7 30.861 14.7 31.2512 14.7 32.0315V38.1818C14.7 39.9817 14.7 40.8817 15.2592 41.4408C15.8183 42 16.7183 42 18.5182 42H23.4818C25.2817 42 26.1817 42 26.7408 41.4408C27.3 40.8817 27.3 39.9817 27.3 38.1818V32.0315C27.3 31.2512 27.3 30.861 27.1547 30.5101C27.0094 30.1594 26.7334 29.8834 26.1817 29.3317L23.6998 26.8498Z" fill="#F8F9FA"/>
<path d="M64.2232 20.7178C64.6166 20.7178 64.9654 20.6436 65.2697 20.4951C65.574 20.3393 65.8115 20.124 65.9822 19.8494C66.1604 19.5674 66.2531 19.2371 66.2605 18.8586H69.2775C69.2701 19.7047 69.0437 20.458 68.5984 21.1186C68.1531 21.7717 67.5557 22.2875 66.8061 22.666C66.0564 23.0371 65.2178 23.2227 64.29 23.2227C63.3549 23.2227 62.5385 23.0668 61.8408 22.7551C61.1506 22.4434 60.5754 22.0129 60.1152 21.4637C59.6551 20.907 59.31 20.2613 59.0799 19.5266C58.8498 18.7844 58.7348 17.9902 58.7348 17.1441V16.8213C58.7348 15.9678 58.8498 15.1736 59.0799 14.4389C59.31 13.6967 59.6551 13.051 60.1152 12.5018C60.5754 11.9451 61.1506 11.5109 61.8408 11.1992C62.5311 10.8875 63.34 10.7316 64.2678 10.7316C65.2549 10.7316 66.1195 10.9209 66.8617 11.2994C67.6113 11.6779 68.1977 12.2197 68.6207 12.9248C69.0512 13.6225 69.2701 14.45 69.2775 15.4074H66.2605C66.2531 15.0066 66.1678 14.643 66.0045 14.3164C65.8486 13.9898 65.6186 13.7301 65.3143 13.5371C65.0174 13.3367 64.65 13.2365 64.2121 13.2365C63.7445 13.2365 63.3623 13.3367 63.0654 13.5371C62.7686 13.7301 62.5385 13.9973 62.3752 14.3387C62.2119 14.6727 62.0969 15.0549 62.0301 15.4854C61.9707 15.9084 61.941 16.3537 61.941 16.8213V17.1441C61.941 17.6117 61.9707 18.0607 62.0301 18.4912C62.0895 18.9217 62.2008 19.3039 62.3641 19.6379C62.5348 19.9719 62.7686 20.2354 63.0654 20.4283C63.3623 20.6213 63.7482 20.7178 64.2232 20.7178ZM70.6246 17.0996V16.8658C70.6246 15.9826 70.7508 15.1699 71.0031 14.4277C71.2555 13.6781 71.6229 13.0287 72.1053 12.4795C72.5877 11.9303 73.1814 11.5035 73.8865 11.1992C74.5916 10.8875 75.4006 10.7316 76.3135 10.7316C77.2264 10.7316 78.0391 10.8875 78.7516 11.1992C79.4641 11.5035 80.0615 11.9303 80.5439 12.4795C81.0338 13.0287 81.4049 13.6781 81.6572 14.4277C81.9096 15.1699 82.0357 15.9826 82.0357 16.8658V17.0996C82.0357 17.9754 81.9096 18.7881 81.6572 19.5377C81.4049 20.2799 81.0338 20.9293 80.5439 21.4859C80.0615 22.0352 79.4678 22.4619 78.7627 22.7662C78.0576 23.0705 77.2486 23.2227 76.3357 23.2227C75.4229 23.2227 74.6102 23.0705 73.8977 22.7662C73.1926 22.4619 72.5951 22.0352 72.1053 21.4859C71.6229 20.9293 71.2555 20.2799 71.0031 19.5377C70.7508 18.7881 70.6246 17.9754 70.6246 17.0996ZM73.8309 16.8658V17.0996C73.8309 17.6043 73.8754 18.0756 73.9645 18.5135C74.0535 18.9514 74.1945 19.3373 74.3875 19.6713C74.5879 19.9979 74.8477 20.2539 75.1668 20.4395C75.4859 20.625 75.8756 20.7178 76.3357 20.7178C76.7811 20.7178 77.1633 20.625 77.4824 20.4395C77.8016 20.2539 78.0576 19.9979 78.2506 19.6713C78.4436 19.3373 78.5846 18.9514 78.6736 18.5135C78.7701 18.0756 78.8184 17.6043 78.8184 17.0996V16.8658C78.8184 16.376 78.7701 15.9158 78.6736 15.4854C78.5846 15.0475 78.4398 14.6615 78.2395 14.3275C78.0465 13.9861 77.7904 13.7189 77.4713 13.526C77.1521 13.333 76.7662 13.2365 76.3135 13.2365C75.8607 13.2365 75.4748 13.333 75.1557 13.526C74.8439 13.7189 74.5879 13.9861 74.3875 14.3275C74.1945 14.6615 74.0535 15.0475 73.9645 15.4854C73.8754 15.9158 73.8309 16.376 73.8309 16.8658ZM91.1201 20.3727V5.9H94.3486V23H91.443L91.1201 20.3727ZM83.5053 17.1219V16.8881C83.5053 15.9678 83.6092 15.1328 83.817 14.3832C84.0248 13.6262 84.3291 12.9768 84.7299 12.435C85.1307 11.8932 85.6242 11.4738 86.2105 11.177C86.7969 10.8801 87.4648 10.7316 88.2145 10.7316C88.9195 10.7316 89.5355 10.8801 90.0625 11.177C90.5969 11.4738 91.0496 11.8969 91.4207 12.4461C91.7992 12.9879 92.1035 13.6299 92.3336 14.3721C92.5637 15.1068 92.7307 15.9121 92.8346 16.7879V17.3C92.7307 18.1387 92.5637 18.918 92.3336 19.6379C92.1035 20.3578 91.7992 20.9887 91.4207 21.5305C91.0496 22.0648 90.5969 22.4805 90.0625 22.7773C89.5281 23.0742 88.9047 23.2227 88.1922 23.2227C87.4426 23.2227 86.7746 23.0705 86.1883 22.7662C85.6094 22.4619 85.1195 22.0352 84.7187 21.4859C84.3254 20.9367 84.0248 20.291 83.817 19.5488C83.6092 18.8066 83.5053 17.9977 83.5053 17.1219ZM86.7115 16.8881V17.1219C86.7115 17.6191 86.7486 18.083 86.8228 18.5135C86.9045 18.9439 87.0344 19.3262 87.2125 19.6602C87.398 19.9867 87.6355 20.2428 87.925 20.4283C88.2219 20.6064 88.5818 20.6955 89.0049 20.6955C89.5541 20.6955 90.0068 20.573 90.3631 20.3281C90.7193 20.0758 90.9902 19.7307 91.1758 19.2928C91.3687 18.8549 91.4801 18.3502 91.5098 17.7787V16.3203C91.4875 15.8527 91.4207 15.4334 91.3094 15.0623C91.2055 14.6838 91.0496 14.3609 90.8418 14.0938C90.6414 13.8266 90.3891 13.6188 90.0848 13.4703C89.7879 13.3219 89.4353 13.2477 89.0271 13.2477C88.6115 13.2477 88.2553 13.3441 87.9584 13.5371C87.6615 13.7227 87.4203 13.9787 87.2348 14.3053C87.0566 14.6318 86.923 15.0178 86.834 15.4631C86.7523 15.901 86.7115 16.376 86.7115 16.8881ZM96.3414 17.0996V16.8658C96.3414 15.9826 96.4676 15.1699 96.7199 14.4277C96.9723 13.6781 97.3396 13.0287 97.8221 12.4795C98.3045 11.9303 98.8982 11.5035 99.6033 11.1992C100.308 10.8875 101.117 10.7316 102.03 10.7316C102.943 10.7316 103.756 10.8875 104.468 11.1992C105.181 11.5035 105.778 11.9303 106.261 12.4795C106.751 13.0287 107.122 13.6781 107.374 14.4277C107.626 15.1699 107.753 15.9826 107.753 16.8658V17.0996C107.753 17.9754 107.626 18.7881 107.374 19.5377C107.122 20.2799 106.751 20.9293 106.261 21.4859C105.778 22.0352 105.185 22.4619 104.479 22.7662C103.774 23.0705 102.965 23.2227 102.053 23.2227C101.14 23.2227 100.327 23.0705 99.6145 22.7662C98.9094 22.4619 98.3119 22.0352 97.8221 21.4859C97.3396 20.9293 96.9723 20.2799 96.7199 19.5377C96.4676 18.7881 96.3414 17.9754 96.3414 17.0996ZM99.5477 16.8658V17.0996C99.5477 17.6043 99.5922 18.0756 99.6812 18.5135C99.7703 18.9514 99.9113 19.3373 100.104 19.6713C100.305 19.9979 100.564 20.2539 100.884 20.4395C101.203 20.625 101.592 20.7178 102.053 20.7178C102.498 20.7178 102.88 20.625 103.199 20.4395C103.518 20.2539 103.774 19.9979 103.967 19.6713C104.16 19.3373 104.301 18.9514 104.39 18.5135C104.487 18.0756 104.535 17.6043 104.535 17.0996V16.8658C104.535 16.376 104.487 15.9158 104.39 15.4854C104.301 15.0475 104.157 14.6615 103.956 14.3275C103.763 13.9861 103.507 13.7189 103.188 13.526C102.869 13.333 102.483 13.2365 102.03 13.2365C101.578 13.2365 101.192 13.333 100.872 13.526C100.561 13.7189 100.305 13.9861 100.104 14.3275C99.9113 14.6615 99.7703 15.0475 99.6812 15.4854C99.5922 15.9158 99.5477 16.376 99.5477 16.8658ZM115.623 10.9543V13.2254H108.61V10.9543H115.623ZM110.346 7.98184H113.553V19.3707C113.553 19.7195 113.597 19.9867 113.686 20.1723C113.783 20.3578 113.924 20.4877 114.109 20.5619C114.295 20.6287 114.529 20.6621 114.811 20.6621C115.011 20.6621 115.189 20.6547 115.345 20.6398C115.508 20.6176 115.646 20.5953 115.757 20.573L115.768 22.9332C115.494 23.0223 115.197 23.0928 114.878 23.1447C114.558 23.1967 114.206 23.2227 113.82 23.2227C113.115 23.2227 112.499 23.1076 111.972 22.8775C111.452 22.64 111.052 22.2615 110.77 21.742C110.487 21.2225 110.346 20.5396 110.346 19.6936V7.98184ZM122.993 23.2227C122.058 23.2227 121.22 23.0742 120.477 22.7773C119.735 22.473 119.104 22.0537 118.585 21.5193C118.073 20.985 117.679 20.3652 117.405 19.6602C117.13 18.9477 116.993 18.1906 116.993 17.3891V16.9438C116.993 16.0309 117.123 15.1959 117.382 14.4389C117.642 13.6818 118.013 13.025 118.496 12.4684C118.986 11.9117 119.579 11.485 120.277 11.1881C120.975 10.8838 121.761 10.7316 122.637 10.7316C123.491 10.7316 124.248 10.8727 124.908 11.1547C125.569 11.4367 126.122 11.8375 126.567 12.357C127.02 12.8766 127.361 13.5 127.591 14.2273C127.821 14.9473 127.936 15.7488 127.936 16.632V17.968H118.362V15.8305H124.786V15.5855C124.786 15.1402 124.704 14.7432 124.541 14.3943C124.385 14.0381 124.147 13.7561 123.828 13.5482C123.509 13.3404 123.101 13.2365 122.604 13.2365C122.181 13.2365 121.817 13.3293 121.513 13.5148C121.208 13.7004 120.96 13.9602 120.767 14.2941C120.581 14.6281 120.44 15.0215 120.344 15.4742C120.255 15.9195 120.21 16.4094 120.21 16.9438V17.3891C120.21 17.8715 120.277 18.3168 120.411 18.725C120.552 19.1332 120.748 19.4857 121.001 19.7826C121.26 20.0795 121.572 20.3096 121.936 20.4729C122.307 20.6361 122.726 20.7178 123.194 20.7178C123.773 20.7178 124.311 20.6064 124.808 20.3838C125.313 20.1537 125.747 19.8086 126.111 19.3484L127.669 21.0406C127.417 21.4043 127.072 21.7531 126.634 22.0871C126.203 22.4211 125.684 22.6957 125.075 22.9109C124.467 23.1187 123.773 23.2227 122.993 23.2227ZM134.738 20.7178C135.132 20.7178 135.481 20.6436 135.785 20.4951C136.089 20.3393 136.327 20.124 136.497 19.8494C136.676 19.5674 136.768 19.2371 136.776 18.8586H139.793C139.785 19.7047 139.559 20.458 139.114 21.1186C138.668 21.7717 138.071 22.2875 137.321 22.666C136.572 23.0371 135.733 23.2227 134.805 23.2227C133.87 23.2227 133.054 23.0668 132.356 22.7551C131.666 22.4434 131.091 22.0129 130.63 21.4637C130.17 20.907 129.825 20.2613 129.595 19.5266C129.365 18.7844 129.25 17.9902 129.25 17.1441V16.8213C129.25 15.9678 129.365 15.1736 129.595 14.4389C129.825 13.6967 130.17 13.051 130.63 12.5018C131.091 11.9451 131.666 11.5109 132.356 11.1992C133.046 10.8875 133.855 10.7316 134.783 10.7316C135.77 10.7316 136.635 10.9209 137.377 11.2994C138.127 11.6779 138.713 12.2197 139.136 12.9248C139.566 13.6225 139.785 14.45 139.793 15.4074H136.776C136.768 15.0066 136.683 14.643 136.52 14.3164C136.364 13.9898 136.134 13.7301 135.829 13.5371C135.533 13.3367 135.165 13.2365 134.727 13.2365C134.26 13.2365 133.878 13.3367 133.581 13.5371C133.284 13.7301 133.054 13.9973 132.89 14.3387C132.727 14.6727 132.612 15.0549 132.545 15.4854C132.486 15.9084 132.456 16.3537 132.456 16.8213V17.1441C132.456 17.6117 132.486 18.0607 132.545 18.4912C132.605 18.9217 132.716 19.3039 132.879 19.6379C133.05 19.9719 133.284 20.2354 133.581 20.4283C133.878 20.6213 134.263 20.7178 134.738 20.7178ZM144.78 5.9V23H141.574V5.9H144.78ZM144.324 16.5541H143.444C143.452 15.7154 143.563 14.9436 143.778 14.2385C143.994 13.526 144.302 12.91 144.702 12.3904C145.103 11.8635 145.582 11.4553 146.138 11.1658C146.703 10.8764 147.326 10.7316 148.009 10.7316C148.603 10.7316 149.141 10.817 149.623 10.9877C150.113 11.151 150.532 11.4182 150.881 11.7893C151.237 12.1529 151.512 12.6316 151.705 13.2254C151.898 13.8191 151.994 14.5391 151.994 15.3852V23H148.766V15.3629C148.766 14.8285 148.688 14.4092 148.532 14.1049C148.384 13.7932 148.165 13.5742 147.875 13.448C147.593 13.3145 147.244 13.2477 146.829 13.2477C146.369 13.2477 145.975 13.333 145.649 13.5037C145.329 13.6744 145.073 13.9119 144.88 14.2162C144.687 14.5131 144.546 14.8619 144.457 15.2627C144.368 15.6635 144.324 16.0939 144.324 16.5541Z" fill="#F8F9FA"/>
<path d="M58 38.0673L62.8748 35.6748V34.7533L58 32.3672V33.5727L61.572 35.0877L61.9032 35.2077L61.572 35.3151L58 36.8552V38.0673ZM70.7994 35.8389V35.9715C70.7994 36.4596 70.8545 36.9162 70.965 37.3413C71.0754 37.7622 71.2337 38.1284 71.4398 38.4397C71.6422 38.7511 71.8907 38.9952 72.1851 39.1719C72.4795 39.3488 72.8089 39.437 73.1733 39.437C73.3905 39.437 73.5928 39.4098 73.7807 39.355C73.9684 39.3045 74.1395 39.2308 74.294 39.1341C74.3933 39.0709 74.4855 38.9973 74.57 38.9132C74.6584 38.8291 74.7413 38.7363 74.8185 38.6355V39.2224C74.8185 39.517 74.7817 39.778 74.7081 40.0051C74.6346 40.2325 74.5296 40.4218 74.3933 40.5733C74.2536 40.7291 74.0861 40.8468 73.891 40.9268C73.696 41.0068 73.4769 41.0468 73.234 41.0468C73.0979 41.0468 72.9616 41.0299 72.8255 40.9963C72.6894 40.9668 72.5531 40.9163 72.4169 40.8448C72.2808 40.7732 72.1465 40.6764 72.014 40.5543C71.8815 40.4366 71.7526 40.2913 71.6275 40.1189L71.0975 40.8194C71.2337 41.0425 71.3956 41.2298 71.5833 41.3814C71.7747 41.5329 71.9734 41.6527 72.1795 41.7411C72.382 41.8337 72.5826 41.899 72.7813 41.9367C72.98 41.979 73.1567 42 73.3114 42C73.6868 42 74.029 41.9367 74.3382 41.8106C74.6474 41.6844 74.9142 41.4991 75.1387 41.255C75.3595 41.0109 75.5306 40.7143 75.6521 40.3651C75.7773 40.0157 75.8398 39.6159 75.8398 39.1657V32.4808H74.9124L74.8626 33.2256C74.7927 33.1246 74.7173 33.032 74.6364 32.9479C74.559 32.8638 74.4763 32.79 74.3879 32.7269C74.226 32.6049 74.0437 32.5123 73.8413 32.4492C73.6426 32.3861 73.4235 32.3546 73.1843 32.3546C72.8127 32.3546 72.4795 32.4408 72.1851 32.6133C71.8907 32.7859 71.6404 33.0258 71.4343 33.333C71.2281 33.6401 71.07 34.0083 70.9595 34.4377C70.8527 34.8626 70.7994 35.3297 70.7994 35.8389ZM71.8207 35.9715V35.8389C71.8207 35.5066 71.8501 35.191 71.9091 34.8921C71.9716 34.5891 72.0692 34.3219 72.2017 34.0904C72.3304 33.8632 72.4961 33.6822 72.6986 33.5476C72.9046 33.413 73.1513 33.3456 73.4383 33.3456C73.6076 33.3456 73.7621 33.3709 73.902 33.4214C74.0419 33.4676 74.1689 33.5328 74.283 33.617C74.3971 33.7053 74.4983 33.8086 74.5866 33.9263C74.675 34.0442 74.7523 34.1747 74.8185 34.3177V37.4487C74.7523 37.5959 74.675 37.7307 74.5866 37.8527C74.4983 37.9748 74.3989 38.0799 74.2886 38.1683C74.1744 38.2566 74.0455 38.3261 73.902 38.3766C73.7621 38.4229 73.604 38.446 73.4273 38.446C73.1439 38.446 72.901 38.3807 72.6986 38.2504C72.4961 38.1156 72.3304 37.9348 72.2017 37.7074C72.0692 37.4802 71.9716 37.2172 71.9091 36.9185C71.8501 36.6196 71.8207 36.304 71.8207 35.9715ZM87.9216 39.3108H88.9871V39.2098C88.9208 39.0204 88.8692 38.7996 88.8325 38.547C88.7957 38.2904 88.7773 38.0484 88.7773 37.821V34.6459C88.7773 34.2629 88.7165 33.9283 88.5952 33.6422C88.4737 33.3561 88.308 33.1161 88.0983 32.9226C87.8848 32.7333 87.6326 32.5923 87.3419 32.4997C87.0511 32.4029 86.7364 32.3546 86.3978 32.3546C86.0262 32.3546 85.693 32.4134 85.3986 32.5313C85.1078 32.6492 84.8611 32.8028 84.6588 32.992C84.4527 33.1856 84.2944 33.4024 84.1839 33.6422C84.0772 33.8822 84.022 34.1262 84.0184 34.3744H85.0452C85.0452 34.2314 85.0746 34.0947 85.1335 33.9642C85.1961 33.8296 85.2826 33.7137 85.393 33.617C85.5035 33.5202 85.6378 33.4424 85.7961 33.3835C85.958 33.3245 86.1401 33.2951 86.3426 33.2951C86.5598 33.2951 86.7549 33.3266 86.9278 33.3897C87.1045 33.4529 87.2536 33.5412 87.375 33.655C87.4965 33.7727 87.5904 33.9137 87.6566 34.0778C87.7228 34.2419 87.7559 34.427 87.7559 34.6334V35.1699H86.6408C86.2249 35.1699 85.8475 35.2161 85.5089 35.3087C85.1741 35.4013 84.8869 35.5402 84.6477 35.7253C84.4086 35.9148 84.2227 36.1504 84.0902 36.4324C83.9613 36.7144 83.8969 37.0426 83.8969 37.4172C83.8969 37.7033 83.9447 37.9705 84.0404 38.2189C84.1398 38.4629 84.2797 38.6732 84.46 38.8501C84.6367 39.0309 84.8519 39.1741 85.106 39.2793C85.3636 39.3844 85.6506 39.437 85.9672 39.437C86.1623 39.437 86.3464 39.4139 86.5193 39.3677C86.6922 39.3213 86.8561 39.2583 87.0106 39.1783C87.1615 39.0983 87.2996 39.0057 87.4247 38.9006C87.5535 38.7953 87.6694 38.6837 87.7725 38.566C87.7835 38.7091 87.8001 38.8478 87.8223 38.9826C87.8479 39.1131 87.881 39.2224 87.9216 39.3108ZM86.1163 38.4207C85.9175 38.4207 85.7427 38.3914 85.5918 38.3324C85.4409 38.2735 85.3158 38.1914 85.2163 38.0863C85.117 37.9853 85.0416 37.8633 84.99 37.72C84.9422 37.5769 84.9183 37.4213 84.9183 37.2531C84.9183 37.0762 84.9459 36.9185 85.001 36.7796C85.06 36.6406 85.1446 36.5206 85.2551 36.4198C85.4096 36.2766 85.6176 36.1714 85.8789 36.104C86.1439 36.0325 86.4531 35.9968 86.8063 35.9968H87.7559V37.3792C87.6971 37.5139 87.616 37.6443 87.5131 37.7705C87.4099 37.8926 87.2886 38.002 87.1487 38.0989C87.0052 38.1956 86.8469 38.2735 86.6738 38.3324C86.5009 38.3914 86.315 38.4207 86.1163 38.4207ZM97.4748 32.4808H96.5583V39.3108H97.5299V33.8758C97.5521 33.8086 97.5797 33.7453 97.6127 33.6865C97.6496 33.6276 97.6918 33.575 97.7398 33.5286C97.8023 33.4697 97.8777 33.4255 97.9661 33.3961C98.0582 33.3625 98.1649 33.3456 98.2863 33.3456C98.3968 33.3456 98.4924 33.3625 98.5735 33.3961C98.658 33.4255 98.728 33.474 98.7832 33.5412C98.8421 33.6127 98.8845 33.7032 98.9101 33.8127C98.9396 33.9221 98.9543 34.0483 98.9543 34.1914V39.3108H99.926V34.1978C99.926 34.1724 99.926 34.1514 99.926 34.1347C99.926 34.1137 99.926 34.0926 99.926 34.0714C99.937 33.9663 99.959 33.8716 99.9922 33.7875C100.025 33.6991 100.071 33.6212 100.13 33.554C100.189 33.4907 100.263 33.4402 100.351 33.4024C100.439 33.3645 100.544 33.3456 100.666 33.3456C100.78 33.3456 100.879 33.3625 100.964 33.3961C101.052 33.4297 101.126 33.4802 101.185 33.5476C101.24 33.6191 101.282 33.7096 101.312 33.8191C101.341 33.9283 101.356 34.0547 101.356 34.1978V39.3108H102.328V34.2104C102.328 33.8822 102.294 33.5981 102.228 33.3581C102.162 33.1141 102.066 32.9164 101.941 32.7648C101.827 32.6302 101.687 32.5292 101.521 32.4618C101.356 32.3903 101.17 32.3546 100.964 32.3546C100.813 32.3587 100.673 32.3818 100.544 32.4239C100.419 32.4661 100.305 32.5228 100.202 32.5944C100.121 32.6575 100.046 32.7312 99.9756 32.8153C99.9057 32.8995 99.8451 32.99 99.7935 33.0868C99.753 32.9815 99.7034 32.8869 99.6444 32.8028C99.5892 32.7185 99.5267 32.6469 99.4567 32.5882C99.361 32.5123 99.2487 32.4554 99.1199 32.4177C98.9948 32.3756 98.8531 32.3546 98.6948 32.3546C98.4152 32.3587 98.1759 32.4282 97.9771 32.5628C97.782 32.6974 97.6239 32.8848 97.5023 33.1246L97.4748 32.4808ZM110.175 32.4808V33.4971H112.206V38.3009H110.175V39.3108H115.177V38.3009H113.228V32.4808H110.175ZM112.074 30.6881C112.074 30.8774 112.124 31.0353 112.223 31.1614C112.326 31.2878 112.481 31.3509 112.687 31.3509C112.889 31.3509 113.042 31.2878 113.145 31.1614C113.248 31.0353 113.3 30.8774 113.3 30.6881C113.3 30.5828 113.285 30.4861 113.255 30.3977C113.226 30.3092 113.182 30.2356 113.123 30.1767C113.075 30.122 113.014 30.08 112.941 30.0505C112.867 30.0169 112.782 30 112.687 30C112.591 30 112.505 30.0169 112.427 30.0505C112.354 30.08 112.293 30.122 112.245 30.1767C112.186 30.2398 112.142 30.3156 112.113 30.404C112.087 30.4923 112.074 30.5871 112.074 30.6881ZM123.024 39.3108H124.045V34.4124C124.115 34.2652 124.196 34.1304 124.288 34.0083C124.384 33.8863 124.487 33.7791 124.597 33.6865C124.733 33.5812 124.883 33.4991 125.044 33.4402C125.207 33.3771 125.381 33.3456 125.569 33.3456C125.786 33.3456 125.977 33.375 126.143 33.434C126.312 33.4929 126.456 33.5876 126.574 33.7181C126.688 33.8485 126.774 34.0188 126.833 34.2293C126.892 34.4398 126.922 34.6964 126.922 34.9995V39.3108H127.943V34.9741C127.943 34.5198 127.893 34.1283 127.794 33.8001C127.698 33.4676 127.56 33.194 127.38 32.9794C127.199 32.7648 126.98 32.607 126.723 32.5059C126.469 32.4051 126.186 32.3546 125.873 32.3546C125.641 32.3587 125.42 32.3987 125.21 32.4744C125.004 32.5459 124.813 32.6492 124.636 32.7838C124.518 32.8721 124.406 32.9774 124.299 33.0994C124.196 33.2171 124.1 33.3476 124.012 33.4907L123.94 32.4808H123.024V39.3108ZM135.845 35.8389V35.9715C135.845 36.4596 135.901 36.9162 136.011 37.3413C136.121 37.7622 136.28 38.1284 136.486 38.4397C136.688 38.7511 136.937 38.9952 137.231 39.1719C137.526 39.3488 137.855 39.437 138.219 39.437C138.436 39.437 138.639 39.4098 138.827 39.355C139.014 39.3045 139.186 39.2308 139.34 39.1341C139.439 39.0709 139.531 38.9973 139.616 38.9132C139.704 38.8291 139.787 38.7363 139.865 38.6355V39.2224C139.865 39.517 139.828 39.778 139.754 40.0051C139.68 40.2325 139.576 40.4218 139.439 40.5733C139.299 40.7291 139.132 40.8468 138.937 40.9268C138.742 41.0068 138.523 41.0468 138.28 41.0468C138.144 41.0468 138.008 41.0299 137.872 40.9963C137.735 40.9668 137.599 40.9163 137.463 40.8448C137.327 40.7732 137.192 40.6764 137.06 40.5543C136.928 40.4366 136.799 40.2913 136.673 40.1189L136.143 40.8194C136.28 41.0425 136.442 41.2298 136.629 41.3814C136.821 41.5329 137.019 41.6527 137.226 41.7411C137.428 41.8337 137.629 41.899 137.827 41.9367C138.026 41.979 138.203 42 138.357 42C138.733 42 139.075 41.9367 139.384 41.8106C139.693 41.6844 139.96 41.4991 140.185 41.255C140.406 41.0109 140.577 40.7143 140.698 40.3651C140.823 40.0157 140.886 39.6159 140.886 39.1657V32.4808H139.958L139.909 33.2256C139.839 33.1246 139.763 33.032 139.682 32.9479C139.605 32.8638 139.522 32.79 139.434 32.7269C139.272 32.6049 139.09 32.5123 138.887 32.4492C138.689 32.3861 138.47 32.3546 138.23 32.3546C137.859 32.3546 137.526 32.4408 137.231 32.6133C136.937 32.7859 136.686 33.0258 136.48 33.333C136.274 33.6401 136.116 34.0083 136.005 34.4377C135.899 34.8626 135.845 35.3297 135.845 35.8389ZM136.867 35.9715V35.8389C136.867 35.5066 136.896 35.191 136.955 34.8921C137.018 34.5891 137.115 34.3219 137.248 34.0904C137.376 33.8632 137.542 33.6822 137.745 33.5476C137.951 33.413 138.197 33.3456 138.484 33.3456C138.654 33.3456 138.808 33.3709 138.948 33.4214C139.088 33.4676 139.215 33.5328 139.329 33.617C139.443 33.7053 139.544 33.8086 139.633 33.9263C139.721 34.0442 139.798 34.1747 139.865 34.3177V37.4487C139.798 37.5959 139.721 37.7307 139.633 37.8527C139.544 37.9748 139.445 38.0799 139.334 38.1683C139.22 38.2566 139.092 38.3261 138.948 38.3766C138.808 38.4229 138.65 38.446 138.473 38.446C138.19 38.446 137.947 38.3807 137.745 38.2504C137.542 38.1156 137.376 37.9348 137.248 37.7074C137.115 37.4802 137.018 37.2172 136.955 36.9185C136.896 36.6196 136.867 36.304 136.867 35.9715ZM154 40.264V39.3108H148.937V40.264H154Z" fill="#F8F9FA"/>
</svg>
